<svg xmlns="http://www.w3.org/2000/svg" viewBox="119.17 959.18 96.52 22.32" width="97" height="22">
<path fill="#00B8AA" d="M 142.851562 972.625 L 136.554688 963.785156 L 130.25 972.628906 Z M 145.410156 976.195312 L 127.703125 976.191406 L 124.957031 979.992188 L 120.667969 979.984375 L 134.429688 960.679688 L 138.730469 960.679688 L 152.519531 979.984375 L 148.132812 980 Z M 145.410156 976.195312 "/>
<path fill="#00B8AA" d="M 172.035156 960.707031 L 176.113281 960.695312 L 162.636719 979.996094 L 158.476562 979.988281 L 144.742188 960.71875 L 148.808594 960.683594 L 160.417969 976.839844 Z M 172.035156 960.707031 "/>
<path fill="#00B8AA" d="M 202.015625 964.480469 L 202.019531 979.9375 L 198.445312 979.976562 L 198.453125 963.898438 L 186.316406 963.898438 L 186.316406 960.679688 L 214.175781 960.679688 L 214.1875 963.898438 L 201.957031 963.898438 Z M 202.015625 964.480469 "/>
<path fill="#00B8AA" d="M 182.984375 979.996094 L 179.441406 979.996094 L 179.441406 960.679688 L 182.984375 960.679688 Z M 182.984375 979.996094 "/>
</svg>
