<svg xmlns="http://www.w3.org/2000/svg" viewBox="1678.80 946.30 122.70 35.20" width="123" height="35">
<path fill="#00B8AA" d="M 1683.816406 978.453125 C 1685.191406 978.449219 1685.882812 977.671875 1685.882812 976.121094 C 1685.882812 974.566406 1685.191406 973.792969 1683.816406 973.792969 L 1682.378906 973.792969 L 1682.378906 978.453125 Z M 1680.824219 980 L 1680.824219 972.234375 L 1683.816406 972.234375 C 1686.230469 972.234375 1687.4375 973.527344 1687.4375 976.121094 C 1687.4375 978.707031 1686.230469 980 1683.816406 980 Z M 1680.824219 980 "/>
<path fill="#00B8AA" d="M 1692.789062 980 L 1692.789062 972.246094 L 1698.492188 972.238281 L 1698.492188 973.6875 L 1694.34375 973.6875 L 1694.34375 975.34375 L 1697.453125 975.34375 L 1697.453125 976.785156 L 1694.34375 976.785156 L 1694.34375 978.550781 L 1698.480469 978.550781 L 1698.480469 980 Z M 1692.789062 980 "/>
<path fill="#00B8AA" d="M 1707.964844 972.5 C 1708.363281 972.671875 1708.730469 972.929688 1709.078125 973.273438 L 1708.042969 974.308594 C 1707.695312 973.894531 1707.214844 973.6875 1706.59375 973.6875 C 1705.972656 973.6875 1705.574219 973.835938 1705.402344 974.128906 C 1705.230469 974.421875 1705.230469 974.671875 1705.402344 974.878906 C 1705.574219 975.085938 1705.972656 975.238281 1706.59375 975.34375 C 1707.25 975.410156 1707.84375 975.628906 1708.378906 975.988281 C 1708.914062 976.351562 1709.179688 976.929688 1709.179688 977.722656 C 1709.179688 978.34375 1708.894531 978.878906 1708.324219 979.328125 C 1707.753906 979.777344 1707.085938 980 1706.328125 980 C 1705.609375 980 1705.007812 979.898438 1704.523438 979.6875 C 1704.039062 979.484375 1703.628906 979.207031 1703.28125 978.863281 L 1704.316406 977.828125 C 1704.664062 978.242188 1705.246094 978.480469 1706.074219 978.550781 C 1706.765625 978.550781 1707.195312 978.40625 1707.367188 978.109375 C 1707.539062 977.816406 1707.539062 977.523438 1707.367188 977.230469 C 1707.195312 976.9375 1706.765625 976.757812 1706.074219 976.6875 C 1705.457031 976.621094 1704.886719 976.429688 1704.367188 976.121094 C 1703.851562 975.808594 1703.59375 975.273438 1703.59375 974.515625 C 1703.59375 973.828125 1703.886719 973.277344 1704.476562 972.863281 C 1705.0625 972.445312 1705.667969 972.238281 1706.289062 972.238281 C 1707.007812 972.238281 1707.566406 972.324219 1707.964844 972.5 "/>
<path fill="#00B8AA" d="M 1717.789062 974.308594 L 1716.609375 977.257812 L 1718.9375 977.257812 Z M 1713.867188 980 L 1716.972656 972.238281 L 1718.523438 972.238281 L 1721.625 979.996094 L 1719.972656 980 L 1719.507812 978.808594 L 1715.988281 978.808594 L 1715.523438 980 Z M 1713.867188 980 "/>
<path fill="#00B8AA" d="M 1728.042969 975.34375 L 1730.214844 975.34375 C 1730.839844 975.332031 1731.160156 975.046875 1731.179688 974.488281 C 1731.160156 973.980469 1730.84375 973.714844 1730.230469 973.695312 L 1728.042969 973.695312 Z M 1731.164062 976.617188 L 1733.097656 980 L 1731.316406 980 L 1729.460938 976.792969 L 1728.042969 976.792969 L 1728.042969 980 L 1726.488281 980 L 1726.488281 972.238281 L 1729.875 972.238281 C 1731.683594 972.238281 1732.589844 972.984375 1732.589844 974.476562 C 1732.589844 975.59375 1732.113281 976.308594 1731.164062 976.617188 "/>
<path fill="#00B8AA" d="M 1739.164062 975.34375 L 1741.339844 975.34375 C 1741.960938 975.332031 1742.285156 975.046875 1742.300781 974.488281 C 1742.285156 973.980469 1741.96875 973.714844 1741.351562 973.695312 L 1739.164062 973.695312 Z M 1742.285156 976.617188 L 1744.21875 980 L 1742.441406 980 L 1740.582031 976.792969 L 1739.164062 976.792969 L 1739.164062 980 L 1737.613281 980 L 1737.613281 972.238281 L 1740.996094 972.238281 C 1742.808594 972.238281 1743.714844 972.984375 1743.714844 974.476562 C 1743.714844 975.59375 1743.238281 976.308594 1742.285156 976.617188 "/>
<path fill="#00B8AA" d="M 1752.226562 978.550781 C 1752.914062 978.550781 1753.472656 978.316406 1753.90625 977.851562 C 1754.335938 977.386719 1754.550781 976.808594 1754.550781 976.121094 C 1754.550781 975.429688 1754.335938 974.851562 1753.90625 974.386719 C 1753.472656 973.921875 1752.910156 973.6875 1752.21875 973.6875 C 1751.53125 973.6875 1750.972656 973.921875 1750.539062 974.386719 C 1750.109375 974.851562 1749.894531 975.429688 1749.894531 976.121094 C 1749.894531 976.808594 1750.109375 977.386719 1750.539062 977.851562 C 1750.972656 978.316406 1751.535156 978.550781 1752.226562 978.550781 M 1749.453125 978.886719 C 1748.710938 978.140625 1748.34375 977.21875 1748.34375 976.121094 C 1748.34375 975.015625 1748.710938 974.09375 1749.453125 973.351562 C 1750.195312 972.609375 1751.117188 972.238281 1752.222656 972.238281 C 1753.324219 972.238281 1754.25 972.609375 1754.992188 973.351562 C 1755.734375 974.09375 1756.101562 975.015625 1756.101562 976.121094 C 1756.101562 977.222656 1755.734375 978.144531 1754.992188 978.886719 C 1754.25 979.628906 1753.324219 980 1752.222656 980 C 1751.117188 980 1750.195312 979.628906 1749.453125 978.886719 "/>
<path fill="#00B8AA" d="M 1762.535156 972.238281 L 1762.535156 978.550781 L 1766.671875 978.550781 L 1766.671875 980 L 1760.980469 980 L 1760.980469 972.238281 Z M 1762.535156 972.238281 "/>
<path fill="#00B8AA" d="M 1773.226562 972.238281 L 1773.226562 978.550781 L 1777.367188 978.550781 L 1777.367188 980 L 1771.675781 980 L 1771.675781 972.238281 Z M 1773.226562 972.238281 "/>
<path fill="#00B8AA" d="M 1785.84375 978.550781 C 1786.53125 978.550781 1787.089844 978.316406 1787.523438 977.851562 C 1787.953125 977.386719 1788.167969 976.808594 1788.167969 976.121094 C 1788.167969 975.429688 1787.953125 974.851562 1787.523438 974.386719 C 1787.089844 973.921875 1786.527344 973.6875 1785.835938 973.6875 C 1785.148438 973.6875 1784.589844 973.921875 1784.15625 974.386719 C 1783.726562 974.851562 1783.511719 975.429688 1783.511719 976.121094 C 1783.511719 976.808594 1783.726562 977.386719 1784.15625 977.851562 C 1784.589844 978.316406 1785.152344 978.550781 1785.84375 978.550781 M 1783.070312 978.886719 C 1782.328125 978.140625 1781.960938 977.21875 1781.960938 976.121094 C 1781.960938 975.015625 1782.328125 974.09375 1783.070312 973.351562 C 1783.8125 972.609375 1784.734375 972.238281 1785.839844 972.238281 C 1786.941406 972.238281 1787.867188 972.609375 1788.609375 973.351562 C 1789.351562 974.09375 1789.71875 975.015625 1789.71875 976.121094 C 1789.71875 977.222656 1789.351562 978.144531 1788.609375 978.886719 C 1787.867188 979.628906 1786.941406 980 1785.839844 980 C 1784.734375 980 1783.8125 979.628906 1783.070312 978.886719 "/>
<path fill="#00B8AA" d="M 1798.785156 972.5 C 1799.179688 972.671875 1799.550781 972.929688 1799.894531 973.273438 L 1798.863281 974.308594 C 1798.515625 973.894531 1798.035156 973.6875 1797.410156 973.6875 C 1796.792969 973.6875 1796.394531 973.835938 1796.222656 974.128906 C 1796.050781 974.421875 1796.050781 974.671875 1796.222656 974.878906 C 1796.394531 975.085938 1796.792969 975.238281 1797.410156 975.34375 C 1798.066406 975.410156 1798.664062 975.628906 1799.199219 975.988281 C 1799.734375 976.351562 1800 976.929688 1800 977.722656 C 1800 978.34375 1799.714844 978.878906 1799.144531 979.328125 C 1798.574219 979.777344 1797.90625 980 1797.148438 980 C 1796.425781 980 1795.824219 979.898438 1795.34375 979.6875 C 1794.859375 979.484375 1794.445312 979.207031 1794.101562 978.863281 L 1795.136719 977.828125 C 1795.480469 978.242188 1796.066406 978.480469 1796.894531 978.550781 C 1797.585938 978.550781 1798.015625 978.40625 1798.1875 978.109375 C 1798.355469 977.816406 1798.355469 977.523438 1798.1875 977.230469 C 1798.015625 976.9375 1797.585938 976.757812 1796.894531 976.6875 C 1796.273438 976.621094 1795.703125 976.429688 1795.1875 976.121094 C 1794.667969 975.808594 1794.410156 975.273438 1794.410156 974.515625 C 1794.410156 973.828125 1794.707031 973.277344 1795.292969 972.863281 C 1795.882812 972.445312 1796.484375 972.238281 1797.105469 972.238281 C 1797.828125 972.238281 1798.386719 972.324219 1798.785156 972.5 "/>
<path fill="#00B8AA" d="M 1680.296875 966.445312 L 1684.933594 966.445312 L 1684.933594 959.199219 L 1691.433594 959.199219 L 1691.433594 954.808594 L 1684.933594 954.808594 L 1684.933594 952.207031 L 1693.742188 952.207031 L 1693.742188 947.808594 L 1680.296875 947.808594 Z M 1680.296875 966.445312 "/>
<path fill="#00B8AA" d="M 1708.273438 960.648438 C 1707.40625 961.585938 1706.304688 962.042969 1704.910156 962.042969 C 1703.5 962.042969 1702.390625 961.585938 1701.519531 960.648438 C 1700.640625 959.699219 1700.214844 958.546875 1700.214844 957.125 C 1700.214844 955.703125 1700.640625 954.550781 1701.519531 953.601562 C 1702.390625 952.664062 1703.492188 952.207031 1704.886719 952.207031 C 1706.296875 952.207031 1707.40625 952.664062 1708.273438 953.601562 C 1709.15625 954.550781 1709.582031 955.707031 1709.582031 957.125 C 1709.582031 958.546875 1709.15625 959.699219 1708.273438 960.648438 M 1704.898438 947.808594 C 1702.265625 947.808594 1700.027344 948.707031 1698.253906 950.484375 C 1696.476562 952.257812 1695.578125 954.492188 1695.578125 957.125 C 1695.578125 959.75 1696.476562 961.984375 1698.253906 963.761719 C 1700.027344 965.542969 1702.261719 966.445312 1704.898438 966.445312 C 1707.53125 966.445312 1709.765625 965.542969 1711.542969 963.769531 C 1713.316406 961.996094 1714.214844 959.757812 1714.214844 957.125 C 1714.214844 954.492188 1713.316406 952.257812 1711.542969 950.484375 C 1709.765625 948.707031 1707.53125 947.808594 1704.898438 947.808594 "/>
<path fill="#00B8AA" d="M 1748.992188 958.527344 C 1748.992188 959.679688 1748.679688 960.488281 1748.035156 961 C 1747.355469 961.546875 1746.515625 961.808594 1745.472656 961.808594 C 1744.429688 961.808594 1743.589844 961.546875 1742.910156 961 C 1742.269531 960.488281 1741.957031 959.679688 1741.957031 958.527344 L 1741.957031 947.808594 L 1737.320312 947.808594 L 1737.320312 959.460938 C 1737.320312 961.414062 1738.113281 963.089844 1739.675781 964.4375 C 1741.214844 965.769531 1743.164062 966.445312 1745.472656 966.445312 C 1747.78125 966.445312 1749.734375 965.769531 1751.269531 964.4375 C 1752.832031 963.089844 1753.625 961.414062 1753.625 959.460938 L 1753.625 947.808594 L 1748.992188 947.808594 Z M 1748.992188 958.527344 "/>
<path fill="#00B8AA" d="M 1757.585938 966.445312 L 1762.210938 966.445312 L 1762.210938 947.796875 L 1757.585938 947.796875 Z M 1757.585938 966.445312 "/>
<path fill="#00B8AA" d="M 1765.855469 966.445312 L 1779.824219 966.445312 L 1779.824219 962.042969 L 1770.492188 962.042969 L 1770.492188 959.199219 L 1777.503906 959.199219 L 1777.503906 954.808594 L 1770.492188 954.808594 L 1770.492188 952.207031 L 1779.847656 952.207031 L 1779.847656 947.804688 L 1765.855469 947.820312 Z M 1765.855469 966.445312 "/>
<path fill="#00B8AA" d="M 1794.125 953.433594 C 1794.105469 954.101562 1793.898438 954.785156 1792.523438 954.808594 L 1788.1875 954.808594 L 1788.1875 952.222656 L 1792.539062 952.21875 C 1793.902344 952.265625 1794.105469 952.878906 1794.125 953.433594 M 1795.480469 958.539062 C 1797.449219 957.664062 1798.445312 955.941406 1798.445312 953.414062 C 1798.445312 950.855469 1797.285156 947.808594 1791.753906 947.808594 L 1783.554688 947.808594 L 1783.554688 966.445312 L 1788.1875 966.445312 L 1788.1875 959.210938 L 1790.492188 959.210938 L 1794.679688 966.445312 L 1800 966.445312 Z M 1795.480469 958.539062 "/>
<path fill="#00B8AA" d="M 1734.875 963.902344 L 1732.027344 966.746094 L 1726.359375 961.078125 L 1729.207031 958.234375 Z M 1734.875 963.902344 "/>
<path fill="#00B8AA" d="M 1726.210938 961.988281 C 1726 962.011719 1725.792969 962.042969 1725.566406 962.042969 C 1724.15625 962.042969 1723.046875 961.585938 1722.175781 960.648438 C 1721.296875 959.699219 1720.871094 958.546875 1720.871094 957.125 C 1720.871094 955.707031 1721.296875 954.550781 1722.175781 953.601562 C 1723.046875 952.664062 1724.148438 952.210938 1725.542969 952.210938 C 1726.953125 952.210938 1728.0625 952.664062 1728.929688 953.601562 C 1729.808594 954.550781 1730.238281 955.707031 1730.238281 957.125 C 1730.238281 957.457031 1730.210938 957.769531 1730.164062 958.070312 L 1733.765625 961.675781 C 1734.5 960.332031 1734.871094 958.8125 1734.871094 957.125 C 1734.871094 954.492188 1733.972656 952.257812 1732.199219 950.480469 C 1730.421875 948.707031 1728.1875 947.808594 1725.554688 947.808594 C 1722.921875 947.808594 1720.683594 948.707031 1718.910156 950.480469 C 1717.132812 952.257812 1716.234375 954.492188 1716.234375 957.125 C 1716.234375 959.75 1717.132812 961.984375 1718.910156 963.765625 C 1720.683594 965.542969 1722.917969 966.445312 1725.554688 966.445312 C 1727.09375 966.445312 1728.488281 966.128906 1729.742188 965.519531 Z M 1726.210938 961.988281 "/>
</svg>
